# AST/ASF file generated using VICON BodyLanguage
# -----------------------------------------------
:version 1.10
:name VICON
:units
  mass 1.0
  length 0.45
  angle deg
:documentation
   .ast/.asf automatically generated from VICON data using
   VICON BodyBuilder and BodyLanguage model FoxedUp or BRILLIANT.MOD
:root
   order TX TY TZ RX RY RZ
   axis XYZ
   position 0 0 0  
   orientation 0 0 0 
:bonedata
  begin
     id 1 
     name lhipjoint
     direction 0.561145 -0.797705 0.220866 
     length 2.46425 
     axis 0 0 0  XYZ
  end
  begin
     id 2 
     name lfemur
     direction 0.34202 -0.939693 0  
     length 7.95556  
     axis 0 0 20  XYZ
    dof rx ry rz
    limits (-160.0 20.0)
           (-70.0 70.0)
           (-60.0 70.0)
  end
  begin
     id 3 
     name ltibia
     direction 0.34202 -0.939693 0   
     length 7.9832   
     axis 0 0 20   XYZ
    dof rx
    limits (-10.0 170.0)
  end
  begin
     id 4 
     name lfoot
     direction 0.0723927 -0.198897 0.977343   
     length 2.23085   
     axis -90 7.62852e-016 20   XYZ
    dof rx rz
    limits (-45.0 90.0)
           (-70.0 20.0)
  end
  begin
     id 5 
     name ltoes
     direction 1.53826e-011 -4.21988e-011 1   
     length 1.12127   
     axis -90 7.62852e-016 20   XYZ
    dof rx
    limits (-90.0 20.0)
  end
  begin
     id 6 
     name rhipjoint
     direction -0.610499 -0.763299 0.21134   
     length 2.57533  
     axis 0 0 0  XYZ 
  end
  begin
     id 7 
     name rfemur
     direction -0.34202 -0.939693 0   
     length 8.65257   
     axis 0 0 -20   XYZ
    dof rx ry rz
    limits (-160.0 20.0)
           (-70.0 70.0)
           (-70.0 60.0)
  end
  begin
     id 8 
     name rtibia
     direction -0.342021 -0.939692 0   
     length 7.37807   
     axis 0 0 -20   XYZ
    dof rx
    limits (-10.0 170.0)
 end
 begin
     id 9 
     name rfoot
     direction -0.0239304 -0.0543852 0.998233   
     length 1.87018  
     axis -90 -7.62852e-016 -20   XYZ
    dof rx rz
    limits (-45.0 90.0)
           (-20.0 70.0)
  end
  begin
     id 10 
     name rtoes
     direction -1.53584e-011 -4.2242e-011 1   
     length 0.951568   
     axis -90 -7.62852e-016 -20   XYZ
    dof rx
    limits (-90.0 20.0)
  end
  begin
     id 11 
     name lowerback
     direction 0.00322089 0.999033 0.0438587   
     length 2.07568   
     axis 0 0 0   XYZ
    dof rx ry rz
    limits (-20.0 45.0)
           (-30.0 30.0)
           (-30.0 30.0)
  end
  begin
     id 12 
     name upperback
     direction -0.00321932 0.999732 -0.0229403   
     length 2.06253   
     axis 0 0 0   XYZ
    dof rx ry rz
    limits (-20.0 45.0)
           (-30.0 30.0)
           (-30.0 30.0)
  end
  begin
     id 13 
     name thorax
     direction -0.00537537 0.998955 -0.0453918   
     length 2.06975   
     axis 0 0 0   XYZ
    dof rx ry rz
    limits (-20.0 45.0)
           (-30.0 30.0)
           (-30.0 30.0)
  end
  begin
     id 14 
     name lowerneck
     direction -0.00013604 0.994111 0.108363   
     length 1.50836   
     axis 0 0 0   XYZ
    dof rx ry rz
    limits (-20.0 45.0)
           (-30.0 30.0)
           (-30.0 30.0)
  end
  begin
     id 15 
     name upperneck
     direction 0.0397262 0.983859 -0.174482   
     length 1.53037   
     axis 0 0 0   XYZ
    dof rx ry rz
    limits (-20.0 45.0)
           (-30.0 30.0)
           (-30.0 30.0)
  end
  begin
     id 16
     name head
     direction 0.0109991 0.997082 -0.0755378  
     length 1.56928  
     axis 0 0 0   XYZ
    dof rx ry rz
    limits (-20.0 45.0)
           (-30.0 30.0)
           (-30.0 30.0)
  end
  begin
     id 17 
     name lclavicle
     direction 0.964749 0.254 -0.068874  
     length 3.26503  
     axis 0 0 0   XYZ
    dof ry rz
    limits (-20.0 10.0)
           (0.0 20.0)
  end
  begin
     id 18 
     name lhumerus
     direction 1 -4.48941e-011 -2.05079e-027   
     length 5.68236   
     axis 180 -30 -90   XYZ
    dof rx ry rz
    limits (-60.0 90.0)
           (-90.0 90.0)
           (-90.0 90.0)
  end
  begin
     id 19
     name lradius
     direction 1 -4.48956e-011 6.2882e-027   
     length 3.17112   
     axis 180 -30 -90   XYZ
    dof rx
    limits (-10.0 170.0)
  end
  begin
     id 20
     name lwrist
     direction 1 -4.49014e-011 1.73219e-026   
     length 1.58556   
     axis -1.04724e-014 90 90   XYZ
    dof ry
    limits (-180.0 0.0)
 end
  begin
     id 21 
     name lhand
     direction 1 -4.49312e-011 3.46438e-026   
     length 0.632691   
     axis -2.21057e-014 90 90   XYZ
    dof rx rz
    limits (-90.0 90.0)
           (-45.0 45.0)
  end
  begin
     id 22 
     name lfingers
     direction 1 -4.48894e-011 6.92876e-026   
     length 0.510091   
     axis -4.42114e-014 90 90   XYZ
    dof rx
    limits (0.0 90.0)
  end
  begin
     id 23
     name lthumb
     direction 0.707107 -6.34705e-011 0.707107   
     length 0.732392   
     axis -90 45 2.85299e-015   XYZ
    dof rx rz
    limits (-45.0 45.0)
           (-45.0 45.0)
  end
  begin
     id 24 
     name rclavicle
     direction -0.954374 0.280496 -0.102435   
     length 3.25419  
     axis 0 0 0   XYZ 
    dof ry rz
    limits (-10.0 20.0)
           (-20.0 0.0)
  end
  begin
     id 25 
     name rhumerus
     direction -1 -4.48994e-011 -1.07204e-017  
     length 5.8712   
     axis 180 30 90   XYZ
    dof rx ry rz
    limits (-90.0 60.0)
           (-90.0 90.0)
           (-90.0 90.0)
  end
  begin
     id 26 
     name rradius
     direction -1 -4.48972e-011 5.89292e-027   
     length 3.37589   
     axis 180 30 90   XYZ
    dof rx
    limits (-10.0 170.0)
  end
  begin
     id 27 
     name rwrist
     direction -1 -4.48942e-011 1.73219e-026   
     length 1.68794   
     axis -1.04724e-014 -90 -90   XYZ
    dof ry
    limits (-180.0 0.0)
  end
  begin
     id 28
     name rhand
     direction -1 -4.48514e-011 3.46438e-026   
     length 0.603257   
     axis -2.21057e-014 -90 -90   XYZ
    dof rx rz
    limits (-90.0 90.0)
           (-45.0 45.0)
  end
  begin
     id 29
     name rfingers
     direction -1 -4.50028e-011 6.92876e-026   
     length 0.486362   
     axis -4.42114e-014 -90 -90   XYZ
    dof rx
    limits (0.0 90.0)
  end
  begin
     id 30
     name rthumb
     direction -0.707107 -6.34926e-011 0.707107   
     length 0.698321   
     axis -90 -45 -2.85299e-015   XYZ
    dof rx rz
    limits (-45.0 45.0)
           (-45.0 45.0)
  end
:hierarchy
  begin
    root lhipjoint rhipjoint lowerback
    lhipjoint lfemur
    lfemur ltibia
    ltibia lfoot
    lfoot ltoes
    rhipjoint rfemur
    rfemur rtibia
    rtibia rfoot
    rfoot rtoes
    lowerback upperback
    upperback thorax
    thorax lowerneck lclavicle rclavicle
    lowerneck upperneck
    upperneck head
    lclavicle lhumerus
    lhumerus lradius
    lradius lwrist
    lwrist lhand lthumb
    lhand lfingers
    rclavicle rhumerus
    rhumerus rradius
    rradius rwrist
    rwrist rhand rthumb
    rhand rfingers
  end

#!OML:ASF I:\Segmentation\Patient Classification 1\Patient 1\Session 1\Patient1.ASF
:FULLY-SPECIFIED
:DEGREES
4150
root 27.9729 18.0013 -6.83195 569.326 -429.752 -1999.47
lowerback -9.867 -2.69313 0.311241
upperback 1.89344 -3.82457 2.26579
thorax 7.68125 -1.91764 1.58821
lowerneck -15.5793 10.2404 1.21101
upperneck 25.6258 15.8622 -7.6552
head 11.7208 6.11092 -0.66676
rclavicle -5.76476e-014 -1.43125e-014
rhumerus -54.3058 6.32145 -95.1624
rradius 110.855
rwrist -59.4094
rhand -19.6935 3.93335
rfingers 7.12502
rthumb 6.63567 -25.9427
lclavicle -5.76476e-014 -1.43125e-014
lhumerus 22.1152 -1.48739 55.3328
lradius 84.6517
lwrist 18.8366
lhand -11.8312 39.0153
lfingers 7.12502
lthumb 14.2196 68.5086
rfemur -28.6645 9.45849 10.8673
rtibia 44.2478
rfoot -15.9039 4.03936
rtoes -46.3129
lfemur -26.9638 2.79611 -19.7925
ltibia 37.0943
lfoot -26.0665 10.886
ltoes -10.8138
4151
root 27.9444 18.0093 -6.83224 571.498 -431.685 -2002.76
lowerback -9.3184 -3.26291 0.194782
upperback 2.28783 -4.55807 2.0868
thorax 7.8058 -2.27719 1.36237
lowerneck -16.0979 10.1084 1.34233
upperneck 25.8342 15.6766 -7.6211
head 11.903 6.01562 -0.673894
rclavicle 2.46493e-014 1.90833e-014
rhumerus -53.9676 6.53395 -95.547
rradius 110.928
rwrist -58.1524
rhand -19.4688 4.67439
rfingers 7.12502
rthumb 6.85263 -25.1947
lclavicle 2.46493e-014 1.90833e-014
lhumerus 20.7342 -2.24327 55.7818
lradius 86.9921
lwrist 20.8806
lhand -11.6553 39.4709
lfingers 7.12502
lthumb 14.3891 68.9522
rfemur -26.7812 8.90062 11.0038
rtibia 44.1507
rfoot -16.7662 2.90582
rtoes -46.1326
lfemur -25.9316 1.68408 -19.8778
ltibia 36.872
lfoot -25.0956 10.5023
ltoes -12.1034
4152
root 27.9299 18.0147 -6.8266 571.969 -431.922 -2003.12
lowerback -9.60004 -3.26381 0.269322
upperback 2.20716 -4.56446 2.03069
thorax 7.87067 -2.27314 1.2471
lowerneck -15.9779 10.0463 1.33114
upperneck 25.8612 15.5991 -7.67211
head 11.89 5.97342 -0.709823
rclavicle -5.76476e-014 6.36111e-014
rhumerus -54.1274 7.19156 -95.8959
rradius 111.135
rwrist -56.9989
rhand -19.4524 5.55411
rfingers 7.12502
rthumb 6.86847 -24.3145
lclavicle -5.76476e-014 6.36111e-014
lhumerus 18.6383 -3.07447 56.2784
lradius 89.3921
lwrist 23.2291
lhand -11.8236 39.8843
lfingers 7.12502
lthumb 14.227 69.3771
rfemur -26.729 9.0087 10.9414
rtibia 44.0467
rfoot -16.8848 2.63929
rtoes -46.1146
lfemur -26.0621 1.59641 -19.9141
ltibia 36.9081
lfoot -24.9639 10.5512
ltoes -12.6856
4153
root 27.9189 18.0171 -6.82526 572.484 -432.664 -2003.9
lowerback -9.43552 -3.58103 0.232074
upperback 2.02027 -4.9899 2.19259
thorax 7.60602 -2.48882 1.38391
lowerneck -15.2872 10.0873 1.16188
upperneck 25.7934 15.6869 -7.79922
head 11.7299 6.00051 -0.754619
rclavicle 1.63003e-014 1.11319e-014
rhumerus -54.7231 8.34848 -96.1993
rradius 111.452
rwrist -55.8076
rhand -19.719 6.34639
rfingers 7.12502
rthumb 6.61109 -23.5304
lclavicle 1.63003e-014 1.11319e-014
lhumerus 15.8437 -3.73105 56.9521
lradius 91.8028
lwrist 25.6343
lhand -11.8731 40.3461
lfingers 7.12502
lthumb 14.1793 69.8422
rfemur -26.1613 8.94917 11.1552
rtibia 43.9446
rfoot -17.274 2.15721
rtoes -46.272
lfemur -25.878 1.31629 -19.7757
ltibia 36.9289
lfoot -24.6805 10.4201
ltoes -13.194
4154
root 27.9473 18.0085 -6.80039 568.148 -428.609 -1996.16
lowerback -12.0048 -1.74561 1.09314
upperback 1.30272 -2.69573 2.18802
thorax 8.19587 -1.32639 1.19794
lowerneck -15.6402 9.9837 1.28454
upperneck 25.9542 15.5388 -7.79016
head 11.8644 5.92583 -0.773315
rclavicle -1.11319e-014 -3.18055e-014
rhumerus -54.511 8.88245 -96.5875
rradius 111.67
rwrist -54.3462
rhand -20.1029 7.27561
rfingers 7.12502
rthumb 6.24044 -22.6125
lclavicle -1.11319e-014 -3.18055e-014
lhumerus 14.0024 -4.46325 57.5974
lradius 94.0088
lwrist 27.8931
lhand -11.2273 40.5877
lfingers 7.12502
lthumb 14.8015 70.0391
rfemur -31.051 10.6281 10.7591
rtibia 43.8486
rfoot -15.4301 4.22893
rtoes -46.2169
lfemur -28.9782 4.17388 -19.5679
ltibia 37.1058
lfoot -26.1997 11.6481
ltoes -12.4536
4155
root 27.9324 18.0126 -6.80091 568.427 -429.2 -1996.73
lowerback -11.993 -1.84671 0.988921
upperback 1.52462 -2.81726 2.17199
thorax 8.43533 -1.38749 1.21451
lowerneck -16.1742 9.86916 1.14112
upperneck 26.0213 15.4232 -7.69296
head 11.969 5.85323 -0.706701
rclavicle 1.39149e-014 -9.54166e-015
rhumerus -54.0883 9.54235 -96.8039
rradius 111.734
rwrist -52.1039
rhand -20.3216 8.36702
rfingers 7.12502
rthumb 6.02936 -21.5272
lclavicle 1.39149e-014 -9.54166e-015
lhumerus 12.2221 -4.95239 58.5083
lradius 95.9957
lwrist 30.227
lhand -9.97715 40.3096
lfingers 7.12502
lthumb 16.0056 69.6684
rfemur -30.4889 10.6282 10.8471
rtibia 43.7643
rfoot -15.6479 3.86642
rtoes -46.0732
lfemur -28.7086 4.3025 -19.6248
ltibia 37.0965
lfoot -25.5935 11.5201
ltoes -14.1025
